<?xml version="1.0" encoding="utf-8"?>
<!--Designed by Vexels.com - 2018 All Rights Reserved - https://vexels.com/terms-and-conditions/-->
<svg version="1.1" id="Layer_1" xmlns="http://www.w3.org/2000/svg" xmlns:xlink="http://www.w3.org/1999/xlink" x="0px" y="0px"
	 viewBox="0 0 1200 1200" enable-background="new 0 0 1200 1200" xml:space="preserve" width="256.000000pt" height="256.000000pt">
<g>
	<g>
		
			<rect x="183.359" y="166.635" transform="matrix(0.9364 0.351 -0.351 0.9364 204.1877 -31.1594)" fill="#505050" width="9.378" height="762.088"/>
	</g>
	<g>
		
			<rect x="192.739" y="261.888" transform="matrix(0.9986 0.0529 -0.0529 0.9986 14.9946 -33.2718)" fill="#505050" width="886.38" height="9.381"/>
	</g>
	<g>
		
			<rect x="9.159" y="602.281" transform="matrix(0.3667 0.9304 -0.9304 0.3667 844.2386 -26.2114)" fill="#505050" width="864.424" height="9.379"/>
	</g>
	<g>
		<polygon fill="#505050" points="1144.98,790.968 325.831,272.072 608.076,594.985 601.014,601.159 297.468,253.881 
			303.511,246.831 1150,783.042 		"/>
	</g>
	<g>
		<path fill="#505050" d="M365.056,425.721c-0.287-0.397-29.129-39.681-63.485-35.412c-35.568,4.36-60.334,27.849-60.581,28.087
			l-6.504-6.76c1.096-1.053,27.303-25.901,65.942-30.64c29.065-3.572,53.448,17.984,65.039,30.6
			c2.003-12.461,6.977-32.658,19.019-46.304c14.43-16.357,47.131-21.068,61.503-22.372c-4.669-11.007-12.525-33.794-5.34-49.015
			c9.273-19.636,46.023-38.435,47.583-39.226l4.241,8.366c-9.832,4.989-36.783,20.976-43.342,34.866
			c-6.317,13.386,3.725,38.521,8.128,47.076l-4.003,6.833c-0.458,0.015-46.023,1.866-61.735,19.676
			c-15.954,18.079-17.966,51.393-17.984,51.729L365.056,425.721z"/>
	</g>
	<g>
		<path fill="#505050" d="M432.974,597.196c-0.766-0.711-77.539-71.194-137.384-73.609c-60.095-2.492-104.442,27.648-104.881,27.953
			l-5.319-7.725c1.905-1.313,47.354-32.13,110.579-29.602c51.638,2.085,112.267,49.397,134.63,68.403
			c-1.169-22.399-0.989-72.287,19.474-110.298c27.929-51.888,84.125-59.747,104.426-60.862
			c-7.166-16.503-22.863-60.224-7.459-97.767c20.643-50.322,110.954-50.435,114.814-50.429l-0.046,9.38
			c-0.91-0.082-87.85,0.15-106.091,44.609c-17.349,42.292,9.954,96.045,10.232,96.583l-4.302,6.842
			c-0.711-0.012-72.379-1.38-103.315,56.089c-25.214,46.835-17.59,115.76-17.511,116.45L432.974,597.196z"/>
	</g>
	<g>
		<path fill="#505050" d="M496.56,759.174c-0.776-0.937-78.876-93.81-201.021-100.091c-121.275-6.284-164.375,53.961-164.797,54.569
			l-7.737-5.304c1.82-2.666,46.053-65.152,173.016-58.633c91.413,4.699,158.882,56.251,189.513,84.775
			c-9.19-28.179-15.016-76.455,27.935-120.288c32.432-33.104,70.785-27.01,86.122-22.717c-0.061-15.047,2.843-50.31,29.584-69.206
			c24.13-17.059,56.831-15.52,77.301-12.186c-25.596-23.556-73.509-77.878-60.993-145.466
			c16.653-89.926,116.536-95.938,117.54-95.987l0.473,9.368c-3.81,0.195-93.502,5.752-108.793,88.329
			c-15.435,83.353,71.435,148.135,72.315,148.779l-4.177,8.256c-0.553-0.171-55.091-16.882-88.253,6.565
			c-29.477,20.833-25.416,67.225-25.373,67.689l-6.546,4.742c-1.838-0.794-45.708-19.15-82.501,18.399
			c-60.23,61.466-16.482,132.199-16.033,132.908L496.56,759.174z"/>
	</g>
	<g>
		<path fill="#505050" d="M555.067,907.562c-1.066-1.246-108.231-124.734-234.214-132.841
			c-126.926-8.18-226.556,34.78-227.545,35.217l-3.768-8.592c1.014-0.443,102.787-44.276,231.918-35.986
			C433.6,772.575,530.635,867.719,555.843,894.5c7.939-36.64,43.525-172.158,144.804-228.245
			c88.571-49.042,155.2-48.273,183.663-44.618c-29.028-30.591-107.788-119.858-110.616-190.6
			c-4.94-123.656,100.347-155.908,101.413-156.22l2.638,9.001c-4.058,1.197-99.321,30.652-94.677,146.846
			c3.246,81.258,117.116,193.855,118.267,194.982l-4.607,7.85c-0.766-0.226-78.455-21.66-191.538,40.966
			c-113.131,62.648-141.656,229.133-141.93,230.809L555.067,907.562z"/>
	</g>
</g>
</svg>
