<?xml version="1.0" standalone="no"?>
<!DOCTYPE svg PUBLIC "-//W3C//DTD SVG 20010904//EN"
 "http://www.w3.org/TR/2001/REC-SVG-20010904/DTD/svg10.dtd">
<svg version="1.0" xmlns="http://www.w3.org/2000/svg"
 width="256.000000pt" height="246.000000pt" viewBox="0 0 1280.000000 1230.000000"
 preserveAspectRatio="xMidYMid meet">
<g transform="translate(0.000000,1230.000000) scale(0.100000,-0.100000)"
fill="#8888aa" stroke="none">
<path d="M4547 11198 c-19 -7 -26 -15 -23 -26 3 -10 64 -203 136 -431 72 -227
130 -417 128 -422 -6 -16 -204 -182 -333 -279 -147 -110 -339 -240 -625 -420
-571 -361 -743 -495 -940 -733 -4 -4 -205 172 -446 392 l-439 400 -25 -25 -25
-24 30 -29 c17 -16 215 -196 440 -401 385 -351 410 -375 407 -404 -7 -75 -46
-286 -73 -399 -116 -479 -333 -900 -655 -1273 -95 -109 -282 -294 -298 -294
-7 0 -169 36 -361 80 -584 134 -625 143 -629 139 -2 -2 -7 -17 -10 -34 l-6
-30 432 -99 c238 -54 470 -108 515 -118 l83 -20 30 -98 c207 -672 240 -1245
100 -1759 -30 -110 -89 -280 -115 -331 -12 -23 -59 -38 -553 -174 l-539 -149
10 -33 c7 -24 15 -33 26 -30 53 16 1014 281 1048 289 42 10 42 10 108 -48 201
-177 428 -471 582 -755 165 -305 310 -718 393 -1119 l21 -104 -315 -316 -316
-316 25 -25 25 -25 318 318 318 318 119 -11 c835 -75 1514 -374 2082 -914 56
-54 107 -95 113 -91 14 9 16 19 -46 -293 -32 -155 -55 -284 -53 -286 2 -2 18
-7 34 -10 l30 -6 62 306 c35 169 65 309 67 311 8 9 612 171 766 207 566 130
988 138 1416 25 l80 -21 66 -207 c156 -485 197 -614 202 -618 3 -3 17 -1 33 4
18 7 27 16 25 27 -2 9 -57 185 -122 389 -66 205 -121 383 -122 396 -3 20 7 25
82 50 339 112 636 290 951 572 64 57 240 223 391 369 151 146 309 293 350 327
l75 62 457 -416 458 -416 25 25 25 25 -439 398 c-241 219 -444 403 -451 409
-9 9 -6 65 18 274 48 425 89 624 169 832 139 358 403 614 795 769 l78 32 485
-117 c266 -64 485 -115 487 -113 2 2 7 18 10 34 l7 31 -433 104 c-238 57 -442
107 -453 110 -16 6 -24 29 -43 120 -12 61 -65 292 -117 513 -194 830 -262
1250 -253 1571 l3 109 525 190 c289 104 526 191 528 192 4 3 -20 65 -25 65 -2
0 -240 -85 -528 -190 -287 -104 -527 -190 -533 -190 -19 0 -167 127 -258 222
-200 207 -310 381 -639 1008 -65 124 -147 276 -182 338 l-64 114 55 61 c30 34
200 222 379 417 l325 355 -25 27 -25 26 -166 -181 c-92 -100 -241 -263 -331
-362 -91 -99 -184 -201 -208 -227 -39 -43 -44 -45 -55 -29 -7 10 -90 49 -183
86 -949 376 -1412 682 -1757 1160 l-37 51 69 334 c37 184 67 335 67 336 -1 1
-16 4 -34 7 -25 5 -33 2 -37 -11 -3 -9 -30 -143 -61 -297 -31 -154 -62 -298
-68 -320 l-12 -40 -205 -51 c-322 -81 -606 -129 -918 -155 -181 -15 -612 -6
-772 16 -136 18 -322 53 -354 65 -19 7 -42 69 -166 464 -79 251 -147 456 -150
455 -3 0 -18 -5 -33 -11z m2525 -1168 l-58 -284 -110 -28 c-473 -120 -924
-173 -1282 -149 -241 16 -522 60 -540 85 -4 6 -19 45 -32 86 -124 394 -147
470 -140 470 5 0 40 -7 78 -15 391 -82 930 -88 1407 -15 166 26 434 81 600
123 83 21 131 30 133 23 1 -6 -24 -139 -56 -296z m289 84 c134 -153 322 -313
529 -449 264 -174 539 -310 1033 -510 120 -48 222 -95 227 -104 6 -12 -27 -55
-146 -186 -207 -227 -223 -243 -232 -228 -4 7 -107 53 -227 102 -752 305
-1119 548 -1403 931 l-56 74 48 236 c26 129 52 257 58 283 l10 48 39 -52 c21
-28 75 -94 120 -145z m-2448 -173 l89 -283 -33 -47 c-135 -192 -371 -441 -564
-595 -127 -101 -309 -225 -475 -322 -167 -97 -517 -276 -534 -272 -13 3 -448
393 -454 407 -5 14 131 161 221 238 166 143 341 266 700 490 368 230 684 452
852 601 44 39 86 70 94 69 10 -1 45 -98 104 -286z m2083 -288 c-3 -10 -32
-150 -65 -312 -34 -162 -65 -299 -69 -303 -12 -12 -289 -75 -452 -102 -369
-62 -713 -59 -1034 8 -37 8 -72 18 -76 22 -8 9 -190 574 -190 591 0 6 28 4 64
-3 125 -26 264 -44 439 -56 363 -24 872 35 1302 151 89 24 87 24 81 4z m107
-50 c40 -61 176 -207 257 -279 281 -248 594 -424 1165 -654 99 -40 187 -79
195 -87 12 -11 10 -17 -16 -45 -35 -38 -366 -401 -370 -407 -2 -2 -9 1 -16 6
-7 6 -98 45 -203 88 -228 92 -497 222 -620 300 -203 127 -382 288 -498 444
l-54 73 61 299 c33 165 63 299 67 299 3 0 18 -17 32 -37z m-1979 -333 c48
-151 91 -287 95 -301 8 -23 0 -38 -67 -125 -97 -127 -299 -327 -427 -425 -188
-143 -398 -270 -681 -412 l-130 -65 -224 204 c-124 112 -226 207 -227 211 -1
4 81 51 184 103 329 168 579 325 816 512 133 106 381 357 482 490 44 58 83
100 86 94 4 -6 46 -135 93 -286z m4139 -417 c36 -65 129 -239 207 -388 264
-500 341 -628 490 -814 78 -97 243 -263 313 -316 l38 -28 -257 -94 -257 -93
-56 41 c-87 64 -259 245 -331 347 -97 138 -164 252 -331 569 -84 158 -176 330
-206 381 l-53 94 37 43 c37 42 337 373 339 374 1 1 31 -52 67 -116z m-2463
-155 c-29 -139 -55 -256 -59 -261 -4 -4 -59 -19 -122 -33 -306 -69 -582 -95
-803 -75 -129 11 -322 43 -334 56 -6 6 -160 489 -157 493 1 1 33 -4 71 -12
161 -33 262 -41 519 -40 216 0 284 4 405 23 156 24 343 61 455 90 39 10 71 17
73 15 2 -1 -20 -116 -48 -256z m314 37 c230 -227 497 -384 999 -586 86 -35
157 -68 157 -75 0 -6 -72 -90 -160 -187 l-160 -175 -183 74 c-384 157 -600
286 -772 458 -55 56 -117 126 -137 156 l-36 55 39 190 c21 105 44 214 50 244
l11 55 36 -45 c19 -24 89 -98 156 -164z m-1778 -137 l81 -253 -31 -44 c-50
-71 -241 -265 -335 -340 -99 -79 -232 -168 -346 -233 -131 -75 -346 -180 -359
-175 -6 3 -93 80 -194 171 l-182 166 112 56 c287 144 527 291 710 435 118 94
318 292 398 397 30 39 58 71 61 72 3 0 41 -114 85 -252z m-2203 -41 c152 -140
207 -196 207 -212 0 -44 -39 -251 -70 -369 -120 -466 -389 -914 -743 -1237
l-68 -62 -277 63 c-152 35 -278 64 -280 65 -1 1 46 51 105 111 494 502 771
1065 888 1807 4 26 10 35 18 30 7 -4 105 -92 220 -196z m5685 -144 c27 -49
111 -205 187 -348 211 -399 266 -491 379 -640 73 -97 196 -226 271 -286 30
-24 51 -46 47 -50 -4 -4 -119 -48 -257 -97 -137 -50 -257 -93 -266 -97 -11 -4
-43 16 -100 63 -179 147 -288 301 -499 702 -56 107 -127 239 -157 293 -30 54
-53 102 -51 107 2 7 388 436 395 439 1 1 24 -38 51 -86z m-2092 -78 c-4 -14
-31 -148 -62 -297 -30 -150 -57 -274 -59 -276 -13 -13 -315 -63 -419 -70 -215
-13 -485 18 -505 57 -14 26 -173 542 -169 546 2 2 53 -5 113 -15 154 -27 380
-36 545 -21 173 16 443 64 559 100 2 1 0 -10 -3 -24z m233 -155 c168 -165 401
-304 756 -449 94 -38 170 -74 170 -80 0 -9 -363 -411 -371 -411 -11 0 -305
126 -366 156 -176 88 -343 223 -424 339 l-37 55 47 233 c26 127 52 254 58 281
l10 48 30 -38 c17 -22 74 -82 127 -134z m-3271 -129 c142 -129 192 -180 192
-197 0 -43 -41 -234 -70 -330 -108 -351 -266 -613 -527 -876 -73 -74 -104
-111 -100 -122 5 -13 1 -15 -16 -11 -12 3 -150 34 -307 70 -157 36 -290 67
-297 70 -7 2 33 50 91 109 387 392 637 872 731 1401 8 50 18 100 21 113 6 27
-29 56 282 -227z m1850 -92 l92 -292 -40 -47 c-131 -157 -341 -314 -583 -436
-87 -44 -138 -75 -141 -87 -4 -15 -50 22 -225 183 -122 111 -221 206 -221 210
0 5 73 46 163 92 202 105 320 178 467 289 108 81 325 290 364 352 10 15 21 27
25 27 4 0 48 -131 99 -291z m2940 -259 c253 -477 361 -635 531 -777 38 -32 67
-61 63 -64 -4 -3 -105 -41 -224 -84 l-218 -78 -55 43 c-147 114 -248 252 -430
595 -65 121 -128 238 -141 261 l-24 40 166 183 167 182 20 -33 c11 -18 76
-139 145 -268z m-4290 -104 c174 -159 161 -125 116 -306 -75 -303 -209 -542
-432 -772 -83 -86 -94 -100 -88 -123 6 -22 4 -26 -11 -21 -10 3 -125 30 -256
61 -131 30 -243 57 -248 60 -17 11 -9 23 72 107 295 302 488 654 574 1047 14
64 28 127 31 139 5 23 6 23 47 -15 23 -21 111 -101 195 -177z m2757 -165 c90
-59 296 -161 427 -212 49 -19 87 -37 85 -41 -1 -3 -57 -67 -125 -142 l-124
-135 -46 18 c-283 113 -408 193 -532 341 l-41 49 37 188 37 188 101 -101 c56
-55 137 -124 181 -153z m-355 244 c0 -2 -18 -91 -40 -196 -22 -106 -40 -193
-40 -194 0 -2 -53 -13 -117 -25 -149 -29 -358 -31 -478 -5 -44 9 -82 18 -83
20 -7 6 -120 370 -117 373 2 2 48 -4 102 -13 181 -32 483 -19 683 30 59 14 90
18 90 10z m-920 -132 c5 -21 32 -107 59 -192 l50 -154 -20 -28 c-59 -84 -226
-207 -409 -304 -99 -52 -116 -64 -120 -88 -5 -28 -8 -26 -150 104 -107 97
-146 139 -148 158 -2 24 7 31 121 89 226 115 384 228 517 370 41 44 78 80 82
81 4 0 12 -16 18 -36z m2374 -171 c202 -382 273 -490 413 -622 47 -44 84 -82
82 -84 -2 -2 -117 -45 -256 -95 l-252 -92 -28 23 c-79 65 -147 137 -191 201
-41 60 -249 434 -255 460 -2 7 364 416 373 416 3 1 54 -93 114 -207z m-3389
-202 c216 -196 203 -171 159 -312 -58 -186 -154 -346 -289 -487 -81 -84 -85
-90 -75 -116 6 -15 9 -30 7 -32 -2 -2 -135 27 -296 63 -357 82 -344 70 -214
208 211 223 359 495 429 789 l28 117 31 -29 c16 -16 116 -106 220 -201z m5695
-47 c0 -336 71 -766 255 -1543 26 -107 64 -274 86 -370 21 -96 41 -185 44
-197 4 -19 1 -23 -17 -22 -13 0 -147 31 -298 68 l-275 67 -101 259 c-230 593
-300 855 -311 1171 -6 172 8 301 48 429 l18 60 263 97 c145 53 269 97 276 97
9 1 12 -29 12 -116z m-3896 -113 l-38 -180 -40 -12 c-42 -12 -233 -16 -341 -8
l-60 5 -58 184 c-32 100 -56 185 -53 188 2 3 29 0 58 -7 129 -28 401 -19 533
18 17 5 31 5 33 1 2 -5 -13 -90 -34 -189z m251 73 c83 -70 176 -123 318 -183
67 -28 124 -53 126 -56 2 -2 -36 -47 -85 -100 -49 -53 -103 -113 -120 -132
l-31 -36 -89 38 c-129 55 -193 97 -265 174 l-64 68 31 149 c17 83 34 163 38
180 l8 30 36 -41 c20 -23 64 -64 97 -91z m-840 -161 l58 -183 -29 -31 c-44
-46 -140 -111 -231 -157 -75 -37 -82 -43 -85 -73 -2 -18 -7 -33 -12 -32 -5 0
-69 54 -142 120 -172 154 -174 169 -35 239 121 60 256 153 343 234 40 38 74
68 74 67 1 0 28 -83 59 -184z m1730 16 c117 -223 172 -306 267 -403 43 -43 74
-83 70 -87 -4 -4 -80 -34 -170 -66 l-162 -60 -68 67 c-82 80 -127 146 -216
314 -67 126 -67 128 -49 151 27 36 227 255 233 255 3 0 46 -77 95 -171z m2115
68 c0 -3 -10 -44 -22 -93 -19 -77 -22 -115 -22 -303 0 -227 7 -287 60 -510 34
-141 145 -467 247 -730 47 -118 83 -217 82 -218 -6 -7 -610 141 -621 152 -15
14 -160 391 -217 566 -85 256 -125 492 -114 670 6 95 30 229 46 258 5 8 129
59 277 113 269 98 284 103 284 95z m-4665 -190 c66 -60 130 -118 143 -130 l22
-22 -23 -69 c-47 -138 -104 -232 -205 -337 l-65 -67 11 -41 c5 -22 8 -40 5
-40 -6 0 -354 80 -375 86 -9 3 -21 19 -27 36 -10 29 -8 33 66 112 145 154 249
344 303 555 7 25 15 40 18 35 4 -5 61 -58 127 -118z m4021 -52 c-16 -42 -36
-196 -36 -278 0 -253 70 -533 245 -984 37 -96 65 -175 63 -177 -5 -6 -501 115
-509 123 -12 13 -137 345 -173 462 -62 197 -80 297 -79 455 0 84 6 162 14 194
l14 53 225 83 c124 46 229 83 234 84 4 1 5 -6 2 -15z m-1810 -101 c79 -150
156 -265 209 -311 26 -23 43 -45 40 -53 -3 -8 -74 -38 -158 -68 -83 -30 -158
-57 -166 -59 -9 -4 -12 -1 -7 6 4 7 -17 35 -51 69 -54 54 -163 230 -163 263 0
12 220 258 232 259 4 1 33 -47 64 -106z m-744 63 c38 -47 159 -126 254 -165
43 -18 82 -36 86 -40 3 -3 -33 -48 -81 -99 l-87 -92 -83 40 c-54 26 -99 57
-130 88 l-46 49 25 126 c14 70 27 127 30 127 3 0 17 -15 32 -34z m-115 5 c-2
-11 -15 -71 -28 -135 l-24 -116 -34 -6 c-19 -4 -73 -4 -122 -1 -65 5 -89 4
-92 -6 -2 -6 -6 -10 -9 -7 -8 9 -78 244 -78 262 0 15 14 16 133 11 72 -2 157
0 187 5 30 5 59 10 64 11 4 0 6 -8 3 -18z m-4179 -72 l282 -63 24 -81 c133
-438 178 -841 135 -1195 -20 -162 -100 -449 -157 -568 l-17 -35 -277 -77
c-153 -42 -278 -75 -278 -72 0 2 22 68 49 146 98 285 135 509 135 831 0 230
-9 328 -49 560 -33 188 -113 508 -153 614 -4 9 0 13 9 9 8 -2 141 -33 297 -69z
m3773 -135 l40 -129 -28 -23 c-15 -12 -56 -37 -90 -54 -58 -31 -62 -35 -68
-75 -3 -24 -9 -43 -12 -43 -3 0 -49 40 -103 90 l-97 90 10 43 c9 41 14 46 76
77 71 35 174 105 205 139 11 12 21 19 23 17 2 -2 22 -61 44 -132z m-441 -169
c0 -2 -7 -20 -16 -41 -22 -53 -69 -121 -120 -174 -42 -43 -43 -47 -34 -80 12
-42 13 -63 2 -56 -4 2 -80 21 -167 40 -88 20 -170 40 -181 45 -14 6 -24 22
-28 46 -7 35 -4 40 46 93 85 90 164 220 198 327 7 22 15 43 17 48 3 5 283
-240 283 -248z m-2655 150 c165 -38 305 -73 312 -79 16 -14 77 -251 103 -399
46 -255 43 -525 -6 -746 -21 -95 -61 -217 -109 -333 -5 -12 -3 -18 6 -18 39 0
-34 -24 -309 -101 -169 -47 -308 -84 -310 -83 -2 1 12 44 31 96 156 418 175
860 61 1378 -24 105 -78 312 -92 348 -3 9 -1 13 4 10 5 -3 144 -36 309 -73z
m5618 18 c-13 -97 -7 -292 11 -386 26 -136 79 -310 151 -497 36 -94 65 -172
65 -175 0 -2 -12 0 -27 5 -16 5 -145 36 -288 71 -143 34 -265 67 -271 73 -19
18 -109 271 -140 391 -25 94 -29 129 -29 242 0 72 3 134 6 137 6 6 506 193
522 195 4 1 4 -25 0 -56z m-1558 -165 c28 -51 71 -115 97 -143 59 -65 56 -71
-76 -119 -109 -40 -116 -41 -116 -25 0 7 -18 31 -39 54 -22 24 -51 65 -65 93
l-25 49 81 91 c45 51 84 92 87 92 3 0 29 -42 56 -92z m-3400 -5 c138 -32 253
-62 257 -67 9 -13 53 -196 75 -311 12 -65 17 -141 17 -270 0 -206 -19 -319
-81 -484 -29 -78 -33 -98 -23 -114 6 -10 10 -20 8 -22 -12 -11 -515 -142 -521
-136 -4 4 11 62 33 128 125 374 127 744 7 1206 -18 70 -31 127 -28 127 3 0
119 -26 256 -57z m2898 21 c23 -19 72 -50 109 -67 37 -18 68 -34 68 -37 0 -3
-20 -25 -44 -49 l-43 -43 -49 26 c-27 14 -63 39 -81 55 l-32 30 11 60 c6 34
13 61 16 61 2 0 23 -16 45 -36z m-126 13 c-2 -7 -10 -39 -17 -71 l-12 -58 -55
7 c-42 5 -58 3 -72 -9 -15 -14 -18 -10 -35 49 -27 94 -25 95 95 95 78 0 100
-3 96 -13z m1585 -127 c-5 -150 43 -356 133 -578 10 -24 15 -45 13 -48 -3 -2
-91 17 -196 42 l-191 46 -30 77 c-55 145 -74 229 -75 335 l-1 99 170 63 c94
35 172 63 175 63 3 1 4 -44 2 -99z m-1822 -66 c0 -6 -16 -19 -35 -30 -22 -12
-38 -29 -41 -44 -11 -47 -15 -60 -22 -60 -4 0 -28 18 -53 40 l-46 39 12 48
c11 44 17 51 81 89 l69 40 17 -55 c10 -31 18 -61 18 -67z m-384 20 c52 -48 94
-90 94 -94 0 -4 -18 -28 -41 -53 -38 -44 -40 -48 -30 -84 6 -21 11 -43 11 -49
0 -7 -49 1 -132 20 l-132 32 -13 43 c-13 44 -12 44 25 85 40 43 112 156 112
175 0 6 3 11 6 11 3 0 48 -39 100 -86z m-1600 12 c104 -24 232 -53 285 -65 95
-22 97 -23 103 -54 3 -18 13 -63 21 -102 8 -38 18 -131 21 -205 7 -156 -8
-259 -57 -394 l-30 -81 27 -23 c14 -13 25 -24 23 -26 -7 -5 -594 -166 -606
-166 -21 0 -24 36 -7 76 22 53 59 183 75 269 9 44 14 138 13 255 0 190 -17
319 -63 492 -14 51 -15 68 -6 68 7 0 97 -20 201 -44z m2665 -157 c26 -15 2
-44 -55 -65 -55 -22 -58 -22 -53 -4 3 11 -3 26 -16 37 -11 10 -28 31 -38 47
l-18 29 42 48 41 47 43 -66 c24 -37 49 -69 54 -73z m-312 67 c33 -18 33 -18
14 -37 -22 -23 -44 -18 -90 22 -24 20 -30 32 -26 53 l5 27 32 -24 c17 -13 46
-32 65 -41z m1031 0 c0 -80 21 -183 60 -295 17 -47 30 -88 30 -91 0 -4 -83 14
-185 39 -169 41 -185 47 -194 71 -19 48 -40 135 -43 180 l-3 44 155 58 c85 31
161 57 168 57 8 1 12 -18 12 -63z m-1212 27 c-2 -19 -10 -29 -23 -31 -11 -2
-27 -11 -36 -19 -15 -12 -18 -11 -26 14 -15 41 3 63 50 63 36 0 38 -2 35 -27z
m-1517 -87 c106 -25 196 -50 200 -57 4 -7 13 -51 20 -98 17 -122 7 -247 -29
-358 l-29 -91 30 -31 c23 -23 27 -31 16 -35 -8 -3 -96 -28 -197 -56 l-182 -50
-29 21 -28 21 27 81 c15 45 33 121 40 168 16 110 8 322 -18 442 -10 48 -17 87
-16 87 2 0 89 -20 195 -44z m1368 12 c9 -24 -9 -89 -32 -116 -20 -24 -17 -143
4 -167 10 -11 21 -36 26 -55 7 -28 15 -36 39 -40 25 -5 29 -9 26 -35 -2 -17
-5 -31 -6 -32 -1 -2 -24 4 -50 13 -35 12 -50 24 -57 43 -5 14 -18 42 -28 61
-13 24 -16 43 -11 62 4 15 5 30 1 33 -12 12 -28 105 -19 111 12 8 58 100 58
118 0 13 13 23 33 25 4 1 11 -9 16 -21z m-226 -56 c21 -22 37 -43 36 -48 -2
-5 1 -28 5 -52 4 -24 6 -46 3 -48 -3 -3 -32 0 -66 7 l-60 13 -11 48 c-9 46 -8
51 17 84 16 18 30 34 33 34 3 0 23 -17 43 -38z m1202 -107 c8 -33 12 -61 10
-63 -8 -8 -239 53 -252 66 -31 32 -15 46 100 87 l112 40 8 -35 c4 -19 14 -62
22 -95z m-542 96 c21 -36 22 -67 1 -75 -25 -10 -34 -7 -34 11 0 9 -7 25 -17
35 -15 17 -15 19 2 38 24 26 27 25 48 -9z m-1328 -54 l180 -42 -1 -105 c-1
-81 -6 -117 -21 -157 l-21 -53 39 -35 c25 -22 35 -37 27 -40 -7 -2 -93 -26
-191 -54 l-178 -49 -32 29 -31 28 17 53 c30 97 40 187 34 302 -4 61 -9 123
-13 139 -3 15 -2 27 2 27 5 -1 90 -20 189 -43z m1332 -53 c12 -4 26 -19 32
-36 9 -26 8 -33 -6 -44 -23 -16 -28 -12 -46 41 -16 47 -16 48 20 39z m-889
-50 c81 -18 83 -21 56 -99 l-15 -47 35 -34 c20 -19 36 -39 36 -43 0 -4 -59
-25 -132 -45 l-132 -37 -33 36 -33 36 15 59 c8 32 15 94 15 138 l0 80 58 -13
c31 -8 90 -22 130 -31z m1075 5 c33 -8 52 -19 59 -34 8 -19 2 -29 -46 -79
l-56 -57 -42 39 -42 39 37 14 c42 15 42 17 22 65 -13 33 -13 35 3 30 9 -3 39
-10 65 -17z m-850 -55 c21 -4 36 -12 34 -18 -2 -6 11 -28 29 -49 19 -20 34
-41 34 -46 0 -10 -96 -41 -122 -41 -7 1 -26 19 -41 41 -24 35 -27 47 -21 86 6
39 9 44 28 39 11 -3 38 -9 59 -12z m1126 -11 c146 -33 172 -57 103 -92 -73
-37 -127 -114 -163 -229 -5 -14 -182 139 -187 161 -6 28 40 80 88 100 l49 20
-14 34 c-9 21 -10 33 -3 33 6 0 63 -12 127 -27z m-489 -69 c0 -16 -13 -29 -47
-48 -25 -15 -47 -25 -49 -24 -1 2 -5 14 -9 28 -5 22 -1 28 29 43 25 11 36 23
36 38 0 21 1 22 20 4 11 -10 20 -28 20 -41z m876 -24 c209 -50 204 -49 204
-63 0 -7 -29 -27 -64 -45 -70 -36 -137 -101 -179 -172 -28 -48 -67 -177 -67
-222 0 -15 -4 -29 -9 -32 -5 -3 -68 48 -140 115 -145 133 -137 116 -104 222
21 67 67 115 141 149 64 29 69 36 52 69 -6 10 -9 19 -7 19 3 0 81 -18 173 -40z
m-721 -114 c0 -14 -19 -31 -61 -55 -33 -20 -73 -46 -89 -59 -16 -12 -32 -19
-36 -15 -4 4 -14 32 -23 60 l-15 53 33 25 c18 14 47 30 63 36 18 6 33 19 36
31 6 20 9 19 49 -18 24 -21 43 -47 43 -58z m-325 58 c6 -14 10 -27 10 -28 0
-2 -19 -6 -42 -10 -24 -3 -52 -8 -64 -12 -18 -5 -20 -2 -16 25 3 24 11 33 36
40 52 15 66 13 76 -15z m1553 -66 c97 -23 177 -45 176 -48 0 -3 -40 -24 -89
-48 -196 -94 -303 -262 -344 -540 -7 -51 -15 -95 -18 -97 -4 -4 -71 55 -232
203 l-49 45 12 82 c29 208 102 312 268 381 38 15 69 29 71 30 2 1 -2 12 -8 25
-11 20 -10 21 11 16 13 -4 104 -26 202 -49z m-1893 22 c0 -5 8 -10 17 -10 12
0 2 -15 -32 -50 -61 -62 -83 -62 -100 -3 l-13 43 42 10 c22 6 46 13 51 15 20
7 35 5 35 -5z m140 -49 c0 -11 -23 -126 -26 -129 -2 -3 -84 36 -93 44 -10 9
92 102 105 97 8 -3 14 -8 14 -12z m-316 -66 c8 -33 20 -61 27 -64 13 -4 -180
-201 -198 -201 -7 0 -17 19 -23 43 -17 64 -49 148 -71 186 -11 18 -18 35 -17
37 9 9 254 70 260 65 3 -3 13 -33 22 -66z m1022 -44 c55 -49 80 -79 77 -90 -2
-9 -33 -29 -68 -45 -78 -35 -166 -92 -224 -146 -24 -22 -45 -39 -46 -38 -6 7
-75 229 -75 241 0 20 84 83 158 118 37 18 62 36 62 46 0 19 3 17 116 -86z
m-453 36 c9 -30 17 -56 17 -59 0 -3 -31 -8 -68 -11 -37 -4 -89 -13 -115 -21
-26 -8 -47 -11 -47 -8 1 4 6 34 13 67 12 55 15 61 47 72 19 7 58 12 86 12 l50
1 17 -53z m2037 -28 c140 -33 261 -63 269 -65 8 -2 -24 -23 -70 -45 -181 -88
-298 -199 -379 -364 -60 -121 -93 -246 -116 -436 -10 -79 -19 -146 -20 -148
-2 -2 -98 83 -215 189 l-211 193 7 74 c28 297 125 474 312 571 43 22 95 45
116 52 20 6 37 18 37 26 0 8 3 14 8 14 4 0 122 -27 262 -61z m-2915 -74 c14
-31 34 -94 46 -140 12 -47 26 -85 31 -85 6 0 -52 -63 -128 -140 -76 -77 -143
-140 -150 -140 -7 0 -18 19 -24 43 -40 156 -101 302 -165 396 -25 36 -32 53
-23 56 7 2 81 23 163 46 83 22 161 44 175 48 29 9 39 -1 75 -84z m497 11 c94
-42 90 -32 61 -181 -14 -71 -27 -132 -29 -134 -2 -2 -27 12 -56 32 -53 35
-166 87 -190 87 -7 0 -20 5 -28 10 -12 8 4 29 85 110 55 55 101 100 102 100 1
0 26 -11 55 -24z m3052 -90 l219 -53 -69 -29 c-155 -65 -334 -210 -421 -339
-81 -120 -137 -258 -173 -424 -21 -95 -60 -374 -60 -427 0 -19 -3 -34 -6 -34
-5 0 -255 224 -352 315 l-24 22 21 167 c23 179 39 258 70 349 66 192 190 332
376 425 47 24 184 81 195 81 3 0 103 -24 224 -53z m-4000 -24 c72 -109 140
-279 162 -407 4 -22 10 -47 15 -56 6 -12 -28 -51 -139 -162 -81 -81 -150 -147
-153 -147 -4 0 -12 28 -19 63 -41 208 -162 476 -281 619 l-40 47 53 15 c29 8
116 33 193 55 77 22 145 40 152 40 6 1 32 -30 57 -67z m1377 49 c5 -5 79 -232
79 -242 0 -2 -42 -3 -94 -1 -75 3 -117 -2 -202 -22 -59 -15 -109 -25 -111 -23
-4 4 46 247 53 258 4 8 123 37 169 42 36 4 98 -3 106 -12z m819 -262 c0 -4
-48 -30 -107 -58 -137 -66 -248 -140 -350 -235 l-81 -76 -56 172 -56 173 75
72 c60 58 98 83 190 128 63 31 115 61 115 66 0 6 61 -45 135 -112 74 -68 135
-126 135 -130z m-2688 106 c119 -135 231 -369 283 -595 10 -41 21 -88 25 -105
6 -29 -4 -41 -213 -257 -121 -126 -223 -228 -228 -228 -16 0 -172 246 -236
374 -36 72 -106 230 -155 351 -49 121 -102 244 -118 273 -22 40 -25 54 -16 58
27 10 611 172 617 170 3 0 21 -19 41 -41z m5075 -10 c125 -31 243 -59 261 -62
30 -5 46 -23 21 -23 -22 0 -192 -91 -268 -143 -98 -67 -234 -203 -293 -292
-101 -155 -171 -334 -213 -539 -24 -119 -75 -493 -75 -549 0 -16 -4 -27 -9
-25 -6 1 -109 93 -231 203 l-221 200 6 55 c3 30 13 111 21 180 61 507 189 751
487 932 71 43 239 116 269 117 9 1 119 -24 245 -54z m-3849 -41 c84 -28 125
-50 188 -100 l41 -32 -29 -139 c-15 -76 -33 -161 -39 -190 l-10 -51 -72 54
c-40 30 -112 75 -162 99 -87 43 -245 95 -288 95 -16 0 14 36 123 145 80 80
151 145 158 145 7 0 48 -12 90 -26z m4515 -119 c128 -31 239 -58 247 -61 8 -3
-27 -25 -85 -53 -145 -70 -303 -179 -406 -282 -214 -215 -337 -467 -413 -849
-23 -115 -66 -434 -82 -607 -4 -40 -8 -73 -10 -73 -5 0 -424 382 -424 386 0
15 44 374 56 459 40 284 108 486 222 665 113 178 294 322 537 426 55 23 106
43 113 43 7 1 117 -24 245 -54z m-6446 -51 c18 -33 73 -160 122 -282 130 -320
245 -537 373 -703 l27 -35 -194 -194 c-125 -125 -196 -189 -199 -179 -2 7 -18
75 -36 149 -109 453 -311 846 -577 1120 l-53 56 237 66 c131 37 245 66 253 65
8 -1 29 -29 47 -63z m2674 49 c11 -11 122 -343 117 -349 -2 -1 -28 2 -58 8
-98 18 -259 3 -428 -40 -83 -21 -152 -36 -152 -33 0 3 16 88 36 187 l37 182
81 21 c45 12 99 26 121 31 55 12 232 7 246 -7z m934 -123 c130 -117 136 -125
114 -134 -79 -31 -256 -120 -327 -164 -122 -76 -196 -135 -300 -240 -52 -51
-95 -92 -96 -90 -2 2 -28 83 -60 181 l-56 178 37 46 c69 84 218 200 333 258
74 38 203 94 212 92 3 -1 68 -58 143 -127z m-4140 -102 c282 -300 466 -673
579 -1177 l25 -114 -149 -156 c-82 -86 -187 -194 -234 -240 -79 -79 -85 -83
-90 -60 -86 381 -164 616 -295 884 -133 274 -264 466 -453 661 l-107 111 282
77 c155 42 293 81 307 86 47 16 58 10 135 -72z m2155 -5 c141 -35 291 -112
389 -200 l54 -48 -37 -180 c-20 -99 -39 -188 -42 -197 -4 -15 -16 -9 -67 34
-170 141 -398 250 -612 292 -44 9 -91 19 -104 22 -22 5 -12 18 125 155 l149
150 40 -6 c22 -3 69 -13 105 -22z m2394 -263 l204 -185 -57 -24 c-128 -56
-383 -191 -476 -253 -167 -111 -316 -243 -442 -392 l-41 -49 -77 239 c-42 131
-82 253 -88 271 -15 45 -1 69 113 183 100 99 230 197 352 264 96 53 280 136
295 133 7 -1 104 -85 217 -187z m-5233 33 c63 -65 142 -155 176 -199 269 -354
454 -783 563 -1308 l19 -91 -217 -218 c-172 -172 -218 -214 -223 -200 -4 10
-28 105 -54 212 -170 704 -484 1288 -905 1685 l-79 74 152 42 c84 23 213 59
287 80 74 22 142 39 151 39 9 1 68 -52 130 -116z m4001 37 l36 -10 59 -183
c33 -100 59 -183 58 -184 0 -1 -41 5 -90 14 -165 29 -375 6 -659 -72 -71 -20
-130 -34 -131 -33 -6 6 73 380 81 388 12 11 217 65 319 85 87 16 263 14 327
-5z m-1542 -165 c245 -43 494 -162 664 -317 l60 -54 -59 -295 c-32 -162 -60
-296 -62 -298 -1 -2 -33 23 -70 56 -297 260 -645 415 -1050 468 l-53 7 217
224 c242 250 214 233 353 209z m3238 -330 l164 -149 -28 -13 c-16 -7 -81 -35
-144 -63 -444 -197 -778 -444 -1056 -783 l-31 -38 -16 48 c-113 351 -137 435
-131 445 4 7 38 50 76 95 204 242 494 443 862 599 96 40 102 42 121 26 11 -9
93 -84 183 -167z m-1633 60 c48 -9 95 -19 104 -24 10 -6 46 -102 100 -273 46
-144 85 -268 88 -274 2 -6 -30 -3 -84 9 -121 27 -407 29 -543 4 -129 -24 -320
-69 -465 -110 -66 -19 -121 -30 -123 -26 -3 8 107 571 113 577 2 2 88 26 192
53 296 77 449 93 618 64z m-1895 -286 c298 -72 580 -223 806 -432 l70 -66 -48
-238 c-26 -131 -51 -248 -53 -261 -5 -22 -10 -20 -73 37 -291 265 -633 450
-1007 546 -111 29 -373 75 -425 75 -8 0 74 89 183 198 l198 198 112 -13 c62
-7 168 -27 237 -44z m3981 -183 l219 -199 -116 -48 c-560 -232 -1054 -586
-1369 -983 -33 -41 -62 -75 -65 -75 -3 -1 -21 52 -42 117 -20 64 -61 195 -92
291 l-56 174 41 55 c209 277 539 538 913 722 180 89 324 151 339 147 4 -1 107
-92 228 -201z m-1879 -166 c57 -12 106 -24 110 -28 8 -10 158 -475 154 -480
-2 -2 -51 7 -108 20 -92 21 -128 23 -343 23 -204 0 -258 -4 -360 -22 -133 -25
-385 -86 -572 -138 -68 -19 -127 -35 -131 -35 -5 0 8 80 28 178 21 97 43 209
50 247 7 39 18 75 24 82 14 14 393 116 536 143 230 44 426 47 612 10z m-2654
-86 c472 -75 882 -276 1236 -605 l68 -64 -63 -315 c-34 -173 -63 -317 -65
-319 -2 -2 -43 33 -91 77 -367 337 -789 566 -1256 683 -133 34 -363 74 -479
84 l-78 7 233 240 232 239 83 -6 c46 -3 127 -12 180 -21z m5030 -199 c116
-104 210 -193 209 -197 -1 -3 -42 -41 -92 -84 -49 -43 -209 -193 -354 -334
-289 -279 -412 -390 -541 -491 -193 -150 -415 -278 -619 -358 -103 -40 -211
-75 -216 -69 -1 2 -16 46 -33 98 -17 52 -58 182 -92 289 -49 153 -60 198 -52
215 40 84 347 406 512 538 205 163 460 322 705 439 149 71 336 149 351 146 7
-1 106 -87 222 -192z m-2309 -260 c139 -23 221 -45 230 -64 5 -9 48 -140 96
-291 48 -151 89 -279 91 -285 3 -6 -65 -11 -188 -12 -226 -2 -404 -21 -846
-93 -548 -88 -852 -120 -852 -89 1 22 127 629 132 634 13 13 499 141 646 170
230 46 515 58 691 30z m-3302 -80 c658 -84 1171 -323 1648 -767 l91 -84 -58
-284 c-31 -157 -57 -288 -58 -292 -1 -21 -29 -1 -107 72 -397 376 -862 640
-1399 794 -206 59 -591 126 -725 126 -27 0 -49 3 -49 7 0 4 98 106 217 225
l218 218 52 0 c29 0 105 -7 170 -15z m3748 -648 c11 -24 172 -543 170 -545 -1
-2 -27 4 -56 12 -181 51 -350 71 -614 70 -382 -1 -649 -48 -1323 -234 -119
-33 -217 -58 -220 -56 -3 4 51 282 99 508 12 54 -8 48 237 68 153 12 326 36
712 99 435 72 649 92 865 85 71 -3 130 -6 130 -7z"/>
</g>
</svg>
