<?xml version="1.0" encoding="utf-8"?>
<!--Designed by Vexels.com - 2018 All Rights Reserved - https://vexels.com/terms-and-conditions/-->
<svg version="1.1" id="Layer_1" xmlns="http://www.w3.org/2000/svg" xmlns:xlink="http://www.w3.org/1999/xlink" x="0px" y="0px"
	 viewBox="0 0 1200 1200" enable-background="new 0 0 1200 1200" xml:space="preserve" width="256.000000pt" height="256.000000pt">
<g>
	<g>
		<polygon fill="#505050" points="616.48,740.309 76.297,662.399 77.318,655.313 613.557,732.654 897.271,394.836 902.754,399.442 
					"/>
	</g>
	<g>
		<polygon fill="#505050" points="52.415,941.941 50,935.199 614.181,732.978 614.575,732.929 1149.114,666.159 1150,673.264 
			615.855,739.985 		"/>
	</g>
	<g>
		
			<rect x="231.664" y="612.638" transform="matrix(0.7869 0.617 -0.617 0.7869 478.6506 -153.7595)" fill="#505050" width="460.619" height="7.161"/>
	</g>
	<g>
		
			<rect x="626.591" y="257.772" transform="matrix(0.9981 0.0619 -0.0619 0.9981 33.4449 -37.979)" fill="#505050" width="7.161" height="526.904"/>
	</g>
	<g>
		<path fill="#505050" d="M497.626,782.351l-2.97-6.518c11.457-5.224,28.006-15.458,28.915-21.847
			c0.993-6.951-10.366-22.372-17.761-30.456l-6.972-7.627l10.196,1.676c0.69,0.107,17.257,2.483,28.425-13.649
			c10.565-15.259-3.893-27.022-4.515-27.514l3.954-5.944c0.695,0.378,17.658,9.238,43.086-3.306
			c26.022-12.833,40.62-48.988,40.764-49.352l4.147-10.443l2.66,10.917c2.187,8.963,9.9,33.332,19.239,38.379
			c17.143,9.266,36.834-7.436,37.03-7.606l9.565-8.247l-3.814,12.045c-0.079,0.249-7.791,25.239,2.907,47.282
			c10.075,20.768,19.311,20.675,19.339,20.644l0.758,7.119c-1.42,0.172-14.117,0.967-26.54-24.637
			c-7.837-16.15-6.977-33.207-5.348-43.377c-8.665,5.024-23.26,10.669-37.3,3.077c-9.686-5.233-16.569-22.511-20.117-33.601
			c-6.327,12.353-19.828,34.216-40.123,44.226c-15.88,7.833-29.05,8.164-37.843,6.781c3.867,7.233,5.341,17.089-1.958,27.633
			c-8.502,12.283-19.651,15.803-27.169,16.663c6.282,7.823,15.765,21.348,14.483,30.33
			C528.877,767.52,502.829,779.98,497.626,782.351z"/>
	</g>
	<g>
		<path fill="#505050" d="M379.222,824.793l-1.942-6.893c0.434-0.124,43.573-12.688,54.807-46.275
			c11.201-33.491-12.206-60.287-12.443-60.553l-6.149-6.902l9.194,0.958c1.723,0.184,42.424,3.846,55.243-33.899
			c7.266-21.4-23.644-56.452-23.957-56.804l-13.369-15.015l17.733,9.476c0.487,0.259,49.615,26.099,90.018,12.045
			c52.604-18.297,77.617-63.175,77.861-63.625l4.76-8.714l1.9,9.746c0.068,0.343,6.972,34.563,30.701,48.133
			c37.368,21.36,59.557-4.292,59.779-4.555l5.804,4.156c-0.247,0.41-24.521,41.475-2.595,79.913
			c12.875,22.57,66.523,24.605,67.064,24.623l-0.238,7.156c-2.371-0.079-58.21-2.224-73.045-28.232
			c-16.218-28.426-9.842-57.327-3.63-73.693c-11.646,6.413-31.211,11.42-56.695-3.154c-19.157-10.954-28.293-32.806-32.015-44.757
			c-9.553,14.047-34.47,44.869-77.297,59.767c-30.344,10.553-64.035,0.797-82.281-6.422c9.436,13.294,22.02,35.363,16.28,52.259
			c-11.105,32.701-41.074,38.111-55.203,38.785c7.005,10.513,18.693,33.715,9.373,61.578
			C426.432,811.112,381.145,824.25,379.222,824.793z"/>
	</g>
	<g>
		<path fill="#505050" d="M288.906,857.149l-1.641-6.97c0.51-0.121,51.007-12.558,60.632-56.473
			c9.567-43.671-93.939-105.485-94.986-106.105l-14.103-8.345l16.299,1.702c1.072,0.112,107.711,10.837,129.167-22.607
			c21.856-34.071,11.695-89.988,11.588-90.547l-1.401-7.469l6.653,3.671c0.497,0.273,51.233,27.311,125.106-1.247
			c74.008-28.61,104.737-113.581,105.037-114.435l5.275-14.945l1.664,15.759c0.086,0.819,9.063,82.169,45.615,107.609
			c35.752,24.875,92.102-17.518,92.668-17.95l12.166-9.282l-6.784,13.716c-0.331,0.667-32.645,66.961-8.562,101.881
			c24.575,35.626,91.93,56.532,92.608,56.739l-2.091,6.849c-2.865-0.874-70.416-21.833-96.41-59.522
			c-20.276-29.398-5.616-76.085,3-97.629c-19.073,11.84-60.25,32.258-90.685,11.077c-30.276-21.071-42.575-74.662-46.783-99.65
			c-11.565,25.42-43.564,83.046-104.138,106.464c-62.721,24.246-108.699,10.42-124.877,3.751
			c2.138,16.488,5.35,59.448-13.623,89.025c-18.87,29.414-90.267,28.757-121.418,26.978c28.363,18.605,94.606,66.798,86.006,106.047
			C344.29,843.61,291.162,856.62,288.906,857.149z"/>
	</g>
	<g>
		<path fill="#505050" d="M190.204,892.528l-3.187-6.413c0.688-0.343,68.791-34.88,71.842-90.974
			c3.061-56.198-92.013-119.53-92.974-120.161l-11.621-7.66l13.875,1.1c0.958,0.07,96,6.793,135.33-60.399
			c35.2-60.133,11.886-93.233,0.683-109.139c-1.221-1.733-2.289-3.253-3.121-4.568l-11.049-17.489l16.285,12.758
			c0.487,0.375,50.984,37.749,159.688-16.848c110.056-55.281,172.912-185.849,173.535-187.161l5.856-12.354l0.951,13.639
			c0.082,1.153,8.714,115.851,66.171,162.013c56.648,45.513,159.016-23.651,160.047-24.354l14.21-9.737l-9.154,14.594
			c-0.739,1.177-73.236,118.445-22.936,184.823c64.732,85.423,205.795,63.103,207.21,62.865l1.175,7.063
			c-1.459,0.242-146.734,23.288-214.091-65.602c-43.767-57.755-2.522-147.437,15.348-180.403
			c-20.402,11.992-62.791,33.601-103.284,33.604c-18.891,0.001-37.361-4.698-53.009-17.27
			c-49.2-39.529-63.784-123.566-67.611-155.028c-17.847,32.943-77.794,132.788-171.203,179.706
			c-82.106,41.24-132.02,31.992-154.051,23.165c11.872,18.694,27.011,53.859-5.464,109.339
			c-33.006,56.382-102.378,63.588-130.185,64.115c25.02,18.262,89.246,70.148,86.545,119.777
			C262.73,855.818,193.165,891.057,190.204,892.528z"/>
	</g>
</g>
</svg>
