<?xml version="1.0" encoding="utf-8"?>
<!--Designed by Vexels.com - 2018 All Rights Reserved - https://vexels.com/terms-and-conditions/-->
<svg version="1.1" id="Layer_1" xmlns="http://www.w3.org/2000/svg" xmlns:xlink="http://www.w3.org/1999/xlink" x="0px" y="0px"
	 viewBox="0 0 1200 1200" enable-background="new 0 0 1200 1200" xml:space="preserve" width="256.000000pt" height="256.000000pt">
<g>
	<g>
		<polygon fill="#c0c0c0" points="108.551,878.376 104.345,869.776 1145.794,359.91 1150,368.51 		"/>
	</g>
	<g>
		
			<rect x="614.141" y="106.674" transform="matrix(0.8897 0.4566 -0.4566 0.8897 362.5811 -211.4738)" fill="#c0c0c0" width="9.568" height="1075.864"/>
	</g>
	<g>
		
			<rect x="5.029" y="571.228" transform="matrix(0.9137 0.4063 -0.4063 0.9137 281.4029 -173.3066)" fill="#c0c0c0" width="1087.572" height="9.568"/>
	</g>
	<g>
		
			<rect x="124.991" y="557.813" transform="matrix(0.1986 0.9801 -0.9801 0.1986 1049.7805 -158.6253)" fill="#c0c0c0" width="993.789" height="9.569"/>
	</g>
	<g>
		<path fill="#c0c0c0" d="M655.002,731.927l-76.819-3.611l-2.365-0.754l-70.023-45.016l-1.972-5.477l33.613-105.539l1.807-2.461
			l71.765-50.478l3.172-0.854l64.926,5.686l2.757,1.187l48.359,42.863l1.371,2.081l32.553,98.697l-2.24,5.692l-104.374,57.398
			L655.002,731.927z M579.916,718.816l74.186,3.487l99.71-54.831l-30.905-93.693l-46.21-40.96l-61.611-5.396l-69.017,48.546
			l-32.011,100.511L579.916,718.816z"/>
	</g>
	<g>
		<path fill="#c0c0c0" d="M521.62,840.13l-3.904-1.256L403.668,731.867l-1.477-4.069l24.711-202.358l2.461-3.624l164.63-89.777
			l2.278-0.583l129.777-0.336l3.702,1.739l79.673,96.47l1.097,3.103l-1.86,157.061l-1.471,3.393L676.379,818.628l-2.686,1.296
			L521.62,840.13z M411.987,726.549l110.624,103.792l148.269-19.698l128.231-123.265l1.813-153.307l-77.115-93.373l-126.303,0.327
			l-161.402,88.017L411.987,726.549z"/>
	</g>
	<g>
		<path fill="#c0c0c0" d="M464.73,951.845l-4.658-1.411L303.905,780.523l-1.212-3.935l42.617-289.664l2.312-3.427l229.353-134.712
			l2.072-0.648l196.691-14.463l4.2,1.926l113.164,152.883l0.888,3.527l-32.061,223.673l-1.265,2.617L692.17,895.634l-2.337,1.352
			L464.73,951.845z M312.495,775.725l152.712,166.153L686.2,888.022l166.471-175.211l31.566-220.214L773.812,343.412L580.86,357.602
			L354.448,490.588L312.495,775.725z"/>
	</g>
	<g>
		<path fill="#c0c0c0" d="M427.809,1022.046l-3.181-1.053L193.86,835.36l-1.77-4.131l33.594-397.192l2.299-3.695l325.654-196.472
			l3.284-0.62l249.468,43.038l2.327,1.106l184.692,160.679l1.626,3.2l29.78,346.583l-2,4.318l-308.212,218.264l-2.586,0.879
			L427.809,1022.046z M201.843,829.496l227.393,182.916l280.996-10.609l304.813-215.859l-29.378-341.921L803.445,285.494
			l-246.393-42.508L235.016,437.274L201.843,829.496z"/>
	</g>
	<g>
		<polygon fill="#c0c0c0" points="703.147,951.988 696.94,944.698 930.711,745.729 933.481,467.192 943.052,467.285 
			940.261,748.007 938.578,751.606 		"/>
	</g>
	<g>
		<path fill="#c0c0c0" d="M480.614,697.501l-4.206-8.599c-1.701,0.832-2.377,2.405-2.496,3.119
			c0.978-5.839,1.642-90.74,1.848-146.384l2.87-4.365l126.686-55.373l3.832,8.768l-123.829,54.127
			c-0.04,9.612-0.181,39.978-0.446,70.403C484.2,695.744,484.2,695.744,480.614,697.501z"/>
	</g>
	<g>
		
			<rect x="551.338" y="772.686" transform="matrix(0.9998 0.0215 -0.0215 0.9998 16.834 -12.8865)" fill="#c0c0c0" width="114.346" height="9.574"/>
	</g>
</g>
</svg>
